<?xml version="1.0" encoding="utf-8"?>
<!-- Generator: Adobe Illustrator 27.6.1, SVG Export Plug-In . SVG Version: 6.00 Build 0)  -->
<svg version="1.1" id="Layer_1" xmlns="http://www.w3.org/2000/svg" xmlns:xlink="http://www.w3.org/1999/xlink" x="0px" y="0px"
	 viewBox="0 0 24 24" style="enable-background:new 0 0 24 24;" xml:space="preserve">
<path d="M4.3,21c3,0,7-1,7-8V5c0-1.2-0.8-2-2-2h-4c-1.2,0-2,0.8-2,2v6c0,1.2,0.8,2,2,2c1,0,1,0,1,1v1c0,1-1,2-2,2s-1,0-1,1v2
	C3.3,21,3.3,21,4.3,21z"/>
<path d="M13.7,21c3,0,7-1,7-8V5c0-1.2-0.8-2-2-2h-4c-1.2,0-2,0.8-2,2v6c0,1.2,0.8,2,2,2h0.8c0,2.2,0.2,4-2.8,4v3
	C12.7,21,12.7,21,13.7,21z"/>
</svg>
